<mxfile host="app.diagrams.net" modified="2024-06-17T15:38:47.873Z" agent="Mozilla/5.0 (Windows NT 10.0; Win64; x64) AppleWebKit/537.36 (KHTML, like Gecko) Chrome/125.0.0.0 Safari/537.36" etag="IlHLERv4c_8dK_XJi4Ck" version="24.5.4" type="device">
  <diagram name="Page-1" id="SzBA81HmkzpS6VmrCU47">
    <mxGraphModel dx="1900" dy="522" grid="1" gridSize="10" guides="1" tooltips="1" connect="1" arrows="1" fold="1" page="1" pageScale="1" pageWidth="850" pageHeight="1100" math="0" shadow="0">
      <root>
        <mxCell id="0" />
        <mxCell id="1" parent="0" />
        <mxCell id="UUonnZXE-ESuKKjVo0UI-1" value="" style="whiteSpace=wrap;html=1;aspect=fixed;labelBackgroundColor=none;fillColor=#5D7F99;strokeColor=#D0CEE2;fontColor=#1A1A1A;" vertex="1" parent="1">
          <mxGeometry y="40" width="140" height="140" as="geometry" />
        </mxCell>
        <mxCell id="UUonnZXE-ESuKKjVo0UI-3" value="" style="whiteSpace=wrap;html=1;aspect=fixed;labelBackgroundColor=none;fillColor=#5D7F99;strokeColor=#D0CEE2;fontColor=#1A1A1A;" vertex="1" parent="1">
          <mxGeometry x="200" y="40" width="140" height="140" as="geometry" />
        </mxCell>
        <mxCell id="UUonnZXE-ESuKKjVo0UI-4" value="" style="whiteSpace=wrap;html=1;aspect=fixed;labelBackgroundColor=none;fillColor=#5D7F99;strokeColor=#D0CEE2;fontColor=#1A1A1A;" vertex="1" parent="1">
          <mxGeometry x="30" y="260" width="140" height="140" as="geometry" />
        </mxCell>
        <mxCell id="UUonnZXE-ESuKKjVo0UI-5" value="" style="whiteSpace=wrap;html=1;aspect=fixed;labelBackgroundColor=none;fillColor=#5D7F99;strokeColor=#D0CEE2;fontColor=#1A1A1A;" vertex="1" parent="1">
          <mxGeometry x="430" y="260" width="140" height="140" as="geometry" />
        </mxCell>
        <mxCell id="UUonnZXE-ESuKKjVo0UI-6" value="" style="whiteSpace=wrap;html=1;aspect=fixed;labelBackgroundColor=none;fillColor=#5D7F99;strokeColor=#D0CEE2;fontColor=#1A1A1A;" vertex="1" parent="1">
          <mxGeometry x="240" y="260" width="140" height="140" as="geometry" />
        </mxCell>
        <mxCell id="UUonnZXE-ESuKKjVo0UI-7" value="" style="whiteSpace=wrap;html=1;aspect=fixed;labelBackgroundColor=none;fillColor=#5D7F99;strokeColor=#D0CEE2;fontColor=#1A1A1A;" vertex="1" parent="1">
          <mxGeometry x="620" y="260" width="140" height="140" as="geometry" />
        </mxCell>
        <mxCell id="UUonnZXE-ESuKKjVo0UI-8" value="" style="whiteSpace=wrap;html=1;aspect=fixed;labelBackgroundColor=none;fillColor=#5D7F99;strokeColor=#D0CEE2;fontColor=#1A1A1A;" vertex="1" parent="1">
          <mxGeometry x="30" y="460" width="140" height="140" as="geometry" />
        </mxCell>
        <mxCell id="UUonnZXE-ESuKKjVo0UI-62" style="edgeStyle=orthogonalEdgeStyle;rounded=0;orthogonalLoop=1;jettySize=auto;html=1;exitX=0;exitY=0.5;exitDx=0;exitDy=0;entryX=1;entryY=0.5;entryDx=0;entryDy=0;strokeColor=#736CA8;fontColor=#1A1A1A;" edge="1" parent="1" source="UUonnZXE-ESuKKjVo0UI-9" target="UUonnZXE-ESuKKjVo0UI-8">
          <mxGeometry relative="1" as="geometry" />
        </mxCell>
        <mxCell id="UUonnZXE-ESuKKjVo0UI-70" style="edgeStyle=orthogonalEdgeStyle;rounded=0;orthogonalLoop=1;jettySize=auto;html=1;exitX=0.5;exitY=1;exitDx=0;exitDy=0;entryX=0.75;entryY=1;entryDx=0;entryDy=0;strokeColor=#736CA8;fontColor=#1A1A1A;" edge="1" parent="1" source="UUonnZXE-ESuKKjVo0UI-9" target="UUonnZXE-ESuKKjVo0UI-11">
          <mxGeometry relative="1" as="geometry" />
        </mxCell>
        <mxCell id="UUonnZXE-ESuKKjVo0UI-9" value="" style="whiteSpace=wrap;html=1;aspect=fixed;labelBackgroundColor=none;fillColor=#5D7F99;strokeColor=#D0CEE2;fontColor=#1A1A1A;" vertex="1" parent="1">
          <mxGeometry x="230" y="460" width="140" height="140" as="geometry" />
        </mxCell>
        <mxCell id="UUonnZXE-ESuKKjVo0UI-11" value="" style="whiteSpace=wrap;html=1;aspect=fixed;labelBackgroundColor=none;fillColor=#5D7F99;strokeColor=#D0CEE2;fontColor=#1A1A1A;" vertex="1" parent="1">
          <mxGeometry x="640" y="460" width="140" height="140" as="geometry" />
        </mxCell>
        <mxCell id="UUonnZXE-ESuKKjVo0UI-13" value="" style="rounded=0;whiteSpace=wrap;html=1;strokeColor=#D0CEE2;fontColor=#1A1A1A;fillColor=#5D7F99;" vertex="1" parent="1">
          <mxGeometry y="40" width="140" height="40" as="geometry" />
        </mxCell>
        <mxCell id="UUonnZXE-ESuKKjVo0UI-14" value="Player Interface" style="text;html=1;align=center;verticalAlign=middle;whiteSpace=wrap;rounded=0;fontColor=#1A1A1A;" vertex="1" parent="1">
          <mxGeometry y="45" width="130" height="30" as="geometry" />
        </mxCell>
        <mxCell id="UUonnZXE-ESuKKjVo0UI-15" value="Game Interface" style="text;html=1;align=center;verticalAlign=middle;whiteSpace=wrap;rounded=0;fontColor=#1A1A1A;" vertex="1" parent="1">
          <mxGeometry x="200" y="45" width="110" height="30" as="geometry" />
        </mxCell>
        <mxCell id="UUonnZXE-ESuKKjVo0UI-16" value="" style="rounded=0;whiteSpace=wrap;html=1;strokeColor=#D0CEE2;fontColor=#1A1A1A;fillColor=#5D7F99;" vertex="1" parent="1">
          <mxGeometry x="200" y="40" width="140" height="40" as="geometry" />
        </mxCell>
        <mxCell id="UUonnZXE-ESuKKjVo0UI-17" value="Game Interface" style="text;html=1;align=center;verticalAlign=middle;whiteSpace=wrap;rounded=0;fontColor=#1A1A1A;" vertex="1" parent="1">
          <mxGeometry x="200" y="40" width="120" height="30" as="geometry" />
        </mxCell>
        <mxCell id="UUonnZXE-ESuKKjVo0UI-18" value="" style="rounded=0;whiteSpace=wrap;html=1;strokeColor=#D0CEE2;fontColor=#1A1A1A;fillColor=#5D7F99;" vertex="1" parent="1">
          <mxGeometry x="30" y="260" width="140" height="40" as="geometry" />
        </mxCell>
        <mxCell id="UUonnZXE-ESuKKjVo0UI-19" value="Player Class" style="text;html=1;align=center;verticalAlign=middle;whiteSpace=wrap;rounded=0;fontColor=#1A1A1A;" vertex="1" parent="1">
          <mxGeometry x="30" y="260" width="130" height="30" as="geometry" />
        </mxCell>
        <mxCell id="UUonnZXE-ESuKKjVo0UI-20" value="" style="rounded=0;whiteSpace=wrap;html=1;strokeColor=#D0CEE2;fontColor=#1A1A1A;fillColor=#5D7F99;" vertex="1" parent="1">
          <mxGeometry x="240" y="260" width="140" height="40" as="geometry" />
        </mxCell>
        <mxCell id="UUonnZXE-ESuKKjVo0UI-21" value="Car Class" style="text;html=1;align=center;verticalAlign=middle;whiteSpace=wrap;rounded=0;fontColor=#1A1A1A;" vertex="1" parent="1">
          <mxGeometry x="240" y="260" width="130" height="30" as="geometry" />
        </mxCell>
        <mxCell id="UUonnZXE-ESuKKjVo0UI-22" value="" style="rounded=0;whiteSpace=wrap;html=1;strokeColor=#D0CEE2;fontColor=#1A1A1A;fillColor=#5D7F99;" vertex="1" parent="1">
          <mxGeometry x="430" y="260" width="140" height="40" as="geometry" />
        </mxCell>
        <mxCell id="UUonnZXE-ESuKKjVo0UI-23" value="Text Class" style="text;html=1;align=center;verticalAlign=middle;whiteSpace=wrap;rounded=0;fontColor=#1A1A1A;" vertex="1" parent="1">
          <mxGeometry x="430" y="260" width="140" height="30" as="geometry" />
        </mxCell>
        <mxCell id="UUonnZXE-ESuKKjVo0UI-24" value="" style="rounded=0;whiteSpace=wrap;html=1;strokeColor=#D0CEE2;fontColor=#1A1A1A;fillColor=#5D7F99;" vertex="1" parent="1">
          <mxGeometry x="620" y="260" width="140" height="40" as="geometry" />
        </mxCell>
        <mxCell id="UUonnZXE-ESuKKjVo0UI-25" value="GameState Class" style="text;html=1;align=center;verticalAlign=middle;whiteSpace=wrap;rounded=0;fontColor=#1A1A1A;" vertex="1" parent="1">
          <mxGeometry x="630" y="265" width="110" height="30" as="geometry" />
        </mxCell>
        <mxCell id="UUonnZXE-ESuKKjVo0UI-66" style="edgeStyle=orthogonalEdgeStyle;rounded=0;orthogonalLoop=1;jettySize=auto;html=1;exitX=0.5;exitY=0;exitDx=0;exitDy=0;strokeColor=#736CA8;fontColor=#1A1A1A;" edge="1" parent="1" source="UUonnZXE-ESuKKjVo0UI-26">
          <mxGeometry relative="1" as="geometry">
            <mxPoint x="230" y="190" as="targetPoint" />
            <Array as="points">
              <mxPoint x="100" y="420" />
              <mxPoint x="231" y="420" />
            </Array>
          </mxGeometry>
        </mxCell>
        <mxCell id="UUonnZXE-ESuKKjVo0UI-26" value="" style="rounded=0;whiteSpace=wrap;html=1;strokeColor=#D0CEE2;fontColor=#1A1A1A;fillColor=#5D7F99;" vertex="1" parent="1">
          <mxGeometry x="30" y="460" width="140" height="50" as="geometry" />
        </mxCell>
        <mxCell id="UUonnZXE-ESuKKjVo0UI-27" value="Game Class" style="text;html=1;align=center;verticalAlign=middle;whiteSpace=wrap;rounded=0;fontColor=#1A1A1A;" vertex="1" parent="1">
          <mxGeometry x="40" y="470" width="110" height="30" as="geometry" />
        </mxCell>
        <mxCell id="UUonnZXE-ESuKKjVo0UI-28" value="" style="rounded=0;whiteSpace=wrap;html=1;strokeColor=#D0CEE2;fontColor=#1A1A1A;fillColor=#5D7F99;" vertex="1" parent="1">
          <mxGeometry x="230" y="460" width="140" height="50" as="geometry" />
        </mxCell>
        <mxCell id="UUonnZXE-ESuKKjVo0UI-29" value="Game Window" style="text;html=1;align=center;verticalAlign=middle;whiteSpace=wrap;rounded=0;fontColor=#1A1A1A;" vertex="1" parent="1">
          <mxGeometry x="230" y="470" width="130" height="30" as="geometry" />
        </mxCell>
        <mxCell id="UUonnZXE-ESuKKjVo0UI-68" style="edgeStyle=orthogonalEdgeStyle;rounded=0;orthogonalLoop=1;jettySize=auto;html=1;exitX=0;exitY=0.5;exitDx=0;exitDy=0;entryX=1;entryY=0.5;entryDx=0;entryDy=0;strokeColor=#736CA8;fontColor=#1A1A1A;" edge="1" parent="1" source="UUonnZXE-ESuKKjVo0UI-32" target="UUonnZXE-ESuKKjVo0UI-9">
          <mxGeometry relative="1" as="geometry" />
        </mxCell>
        <mxCell id="UUonnZXE-ESuKKjVo0UI-32" value="" style="whiteSpace=wrap;html=1;aspect=fixed;labelBackgroundColor=none;fillColor=#5D7F99;strokeColor=#D0CEE2;fontColor=#1A1A1A;" vertex="1" parent="1">
          <mxGeometry x="425" y="460" width="140" height="140" as="geometry" />
        </mxCell>
        <mxCell id="UUonnZXE-ESuKKjVo0UI-33" value="" style="rounded=0;whiteSpace=wrap;html=1;strokeColor=#D0CEE2;fontColor=#1A1A1A;fillColor=#5D7F99;" vertex="1" parent="1">
          <mxGeometry x="425" y="460" width="140" height="50" as="geometry" />
        </mxCell>
        <mxCell id="UUonnZXE-ESuKKjVo0UI-34" value="Login Window" style="text;html=1;align=center;verticalAlign=middle;whiteSpace=wrap;rounded=0;fontColor=#1A1A1A;" vertex="1" parent="1">
          <mxGeometry x="430" y="470" width="130" height="30" as="geometry" />
        </mxCell>
        <mxCell id="UUonnZXE-ESuKKjVo0UI-35" value="" style="rounded=0;whiteSpace=wrap;html=1;strokeColor=#D0CEE2;fontColor=#1A1A1A;fillColor=#5D7F99;" vertex="1" parent="1">
          <mxGeometry x="640" y="460" width="140" height="40" as="geometry" />
        </mxCell>
        <mxCell id="UUonnZXE-ESuKKjVo0UI-36" value="Results Window" style="text;html=1;align=center;verticalAlign=middle;whiteSpace=wrap;rounded=0;fontColor=#1A1A1A;" vertex="1" parent="1">
          <mxGeometry x="640" y="465" width="140" height="30" as="geometry" />
        </mxCell>
        <mxCell id="UUonnZXE-ESuKKjVo0UI-37" value="" style="rounded=0;whiteSpace=wrap;html=1;strokeColor=#D0CEE2;fontColor=#1A1A1A;fillColor=#5D7F99;" vertex="1" parent="1">
          <mxGeometry x="30" y="300" width="140" height="30" as="geometry" />
        </mxCell>
        <mxCell id="UUonnZXE-ESuKKjVo0UI-38" value="+getName(): string&lt;span style=&quot;color: rgba(0, 0, 0, 0); font-family: monospace; font-size: 0px; text-align: start; text-wrap: nowrap;&quot;&gt;%3CmxGraphModel%3E%3Croot%3E%3CmxCell%20id%3D%220%22%2F%3E%3CmxCell%20id%3D%221%22%20parent%3D%220%22%2F%3E%3CmxCell%20id%3D%222%22%20value%3D%22%22%20style%3D%22rounded%3D0%3BwhiteSpace%3Dwrap%3Bhtml%3D1%3BstrokeColor%3D%23D0CEE2%3BfontColor%3D%231A1A1A%3BfillColor%3D%235D7F99%3B%22%20vertex%3D%221%22%20parent%3D%221%22%3E%3CmxGeometry%20x%3D%2230%22%20y%3D%22460%22%20width%3D%22140%22%20height%3D%2250%22%20as%3D%22geometry%22%2F%3E%3C%2FmxCell%3E%3C%2Froot%3E%3C%2FmxGraphModel%3E&lt;/span&gt;" style="text;html=1;align=center;verticalAlign=middle;whiteSpace=wrap;rounded=0;fontColor=#1A1A1A;" vertex="1" parent="1">
          <mxGeometry x="30" y="330" width="130" height="30" as="geometry" />
        </mxCell>
        <mxCell id="UUonnZXE-ESuKKjVo0UI-39" value="+setName(): string" style="text;html=1;align=center;verticalAlign=middle;whiteSpace=wrap;rounded=0;fontColor=#1A1A1A;" vertex="1" parent="1">
          <mxGeometry x="30" y="350" width="130" height="30" as="geometry" />
        </mxCell>
        <mxCell id="UUonnZXE-ESuKKjVo0UI-40" value="" style="rounded=0;whiteSpace=wrap;html=1;strokeColor=#D0CEE2;fontColor=#1A1A1A;fillColor=#5D7F99;" vertex="1" parent="1">
          <mxGeometry x="240" y="300" width="140" height="30" as="geometry" />
        </mxCell>
        <mxCell id="UUonnZXE-ESuKKjVo0UI-41" value="+getSpeed(): double" style="text;html=1;align=center;verticalAlign=middle;whiteSpace=wrap;rounded=0;fontColor=#1A1A1A;" vertex="1" parent="1">
          <mxGeometry x="240" y="330" width="130" height="30" as="geometry" />
        </mxCell>
        <mxCell id="UUonnZXE-ESuKKjVo0UI-42" value="+setSpeed(): double" style="text;html=1;align=center;verticalAlign=middle;whiteSpace=wrap;rounded=0;fontColor=#1A1A1A;" vertex="1" parent="1">
          <mxGeometry x="240" y="350" width="130" height="30" as="geometry" />
        </mxCell>
        <mxCell id="UUonnZXE-ESuKKjVo0UI-43" value="" style="rounded=0;whiteSpace=wrap;html=1;strokeColor=#D0CEE2;fontColor=#1A1A1A;fillColor=#5D7F99;" vertex="1" parent="1">
          <mxGeometry x="430" y="300" width="140" height="30" as="geometry" />
        </mxCell>
        <mxCell id="UUonnZXE-ESuKKjVo0UI-44" value="+setText(): string" style="text;html=1;align=center;verticalAlign=middle;whiteSpace=wrap;rounded=0;fontColor=#1A1A1A;" vertex="1" parent="1">
          <mxGeometry x="430" y="330" width="130" height="30" as="geometry" />
        </mxCell>
        <mxCell id="UUonnZXE-ESuKKjVo0UI-45" value="+getText(): string" style="text;html=1;align=center;verticalAlign=middle;whiteSpace=wrap;rounded=0;fontColor=#1A1A1A;" vertex="1" parent="1">
          <mxGeometry x="440" y="350" width="110" height="30" as="geometry" />
        </mxCell>
        <mxCell id="UUonnZXE-ESuKKjVo0UI-46" value="" style="rounded=0;whiteSpace=wrap;html=1;strokeColor=#D0CEE2;fontColor=#1A1A1A;fillColor=#5D7F99;" vertex="1" parent="1">
          <mxGeometry x="620" y="300" width="140" height="20" as="geometry" />
        </mxCell>
        <mxCell id="UUonnZXE-ESuKKjVo0UI-47" value="+getPlayer(): Player" style="text;html=1;align=center;verticalAlign=middle;whiteSpace=wrap;rounded=0;fontColor=#1A1A1A;" vertex="1" parent="1">
          <mxGeometry x="620" y="320" width="130" height="30" as="geometry" />
        </mxCell>
        <mxCell id="UUonnZXE-ESuKKjVo0UI-48" value="+getSpeed(): double" style="text;html=1;align=center;verticalAlign=middle;whiteSpace=wrap;rounded=0;fontColor=#1A1A1A;" vertex="1" parent="1">
          <mxGeometry x="615" y="340" width="140" height="30" as="geometry" />
        </mxCell>
        <mxCell id="UUonnZXE-ESuKKjVo0UI-49" value="+getText(): String" style="text;html=1;align=center;verticalAlign=middle;whiteSpace=wrap;rounded=0;fontColor=#1A1A1A;" vertex="1" parent="1">
          <mxGeometry x="600" y="360" width="160" height="30" as="geometry" />
        </mxCell>
        <mxCell id="UUonnZXE-ESuKKjVo0UI-50" value="handleInput(): void" style="text;html=1;align=center;verticalAlign=middle;whiteSpace=wrap;rounded=0;fontColor=#1A1A1A;" vertex="1" parent="1">
          <mxGeometry x="30" y="510" width="130" height="30" as="geometry" />
        </mxCell>
        <mxCell id="UUonnZXE-ESuKKjVo0UI-52" value="+getName(): string&lt;span style=&quot;color: rgba(0, 0, 0, 0); font-family: monospace; font-size: 0px; text-align: start; text-wrap: nowrap;&quot;&gt;%3CmxGraphModel%3E%3Croot%3E%3CmxCell%20id%3D%220%22%2F%3E%3CmxCell%20id%3D%221%22%20parent%3D%220%22%2F%3E%3CmxCell%20id%3D%222%22%20value%3D%22%22%20style%3D%22rounded%3D0%3BwhiteSpace%3Dwrap%3Bhtml%3D1%3BstrokeColor%3D%23D0CEE2%3BfontColor%3D%231A1A1A%3BfillColor%3D%235D7F99%3B%22%20vertex%3D%221%22%20parent%3D%221%22%3E%3CmxGeometry%20x%3D%2230%22%20y%3D%22460%22%20width%3D%22140%22%20height%3D%2250%22%20as%3D%22geometry%22%2F%3E%3C%2FmxCell%3E%3C%2Froot%3E%3C%2FmxGraphModel%3E&lt;/span&gt;" style="text;html=1;align=center;verticalAlign=middle;whiteSpace=wrap;rounded=0;fontColor=#1A1A1A;" vertex="1" parent="1">
          <mxGeometry x="-10" y="80" width="130" height="30" as="geometry" />
        </mxCell>
        <mxCell id="UUonnZXE-ESuKKjVo0UI-53" value="+getSpeed(): double" style="text;html=1;align=center;verticalAlign=middle;whiteSpace=wrap;rounded=0;fontColor=#1A1A1A;" vertex="1" parent="1">
          <mxGeometry x="-10" y="100" width="130" height="30" as="geometry" />
        </mxCell>
        <mxCell id="UUonnZXE-ESuKKjVo0UI-54" value="+setSpeed(): double" style="text;html=1;align=center;verticalAlign=middle;whiteSpace=wrap;rounded=0;fontColor=#1A1A1A;" vertex="1" parent="1">
          <mxGeometry x="-10" y="130" width="130" height="30" as="geometry" />
        </mxCell>
        <mxCell id="UUonnZXE-ESuKKjVo0UI-55" value="+setText(): string" style="text;html=1;align=center;verticalAlign=middle;whiteSpace=wrap;rounded=0;fontColor=#1A1A1A;" vertex="1" parent="1">
          <mxGeometry x="190" y="80" width="130" height="30" as="geometry" />
        </mxCell>
        <mxCell id="UUonnZXE-ESuKKjVo0UI-56" value="+setText(): string" style="text;html=1;align=center;verticalAlign=middle;whiteSpace=wrap;rounded=0;fontColor=#1A1A1A;" vertex="1" parent="1">
          <mxGeometry x="20" y="530" width="130" height="30" as="geometry" />
        </mxCell>
        <mxCell id="UUonnZXE-ESuKKjVo0UI-57" value="+getText(): string" style="text;html=1;align=center;verticalAlign=middle;whiteSpace=wrap;rounded=0;fontColor=#1A1A1A;" vertex="1" parent="1">
          <mxGeometry x="200" y="100" width="110" height="30" as="geometry" />
        </mxCell>
        <mxCell id="UUonnZXE-ESuKKjVo0UI-58" value="+getText(): string" style="text;html=1;align=center;verticalAlign=middle;whiteSpace=wrap;rounded=0;fontColor=#1A1A1A;" vertex="1" parent="1">
          <mxGeometry x="30" y="550" width="110" height="30" as="geometry" />
        </mxCell>
        <mxCell id="UUonnZXE-ESuKKjVo0UI-59" value="startGame(): Game" style="text;html=1;align=center;verticalAlign=middle;whiteSpace=wrap;rounded=0;fontColor=#1A1A1A;" vertex="1" parent="1">
          <mxGeometry x="200" y="120" width="120" height="30" as="geometry" />
        </mxCell>
        <mxCell id="UUonnZXE-ESuKKjVo0UI-60" value="endGame(): Game" style="text;html=1;align=center;verticalAlign=middle;whiteSpace=wrap;rounded=0;fontColor=#1A1A1A;" vertex="1" parent="1">
          <mxGeometry x="200" y="140" width="120" height="30" as="geometry" />
        </mxCell>
        <mxCell id="UUonnZXE-ESuKKjVo0UI-61" value="startGame(): Game" style="text;html=1;align=center;verticalAlign=middle;whiteSpace=wrap;rounded=0;fontColor=#1A1A1A;" vertex="1" parent="1">
          <mxGeometry x="40" y="570" width="120" height="30" as="geometry" />
        </mxCell>
        <mxCell id="UUonnZXE-ESuKKjVo0UI-63" value="1" style="text;html=1;align=center;verticalAlign=middle;whiteSpace=wrap;rounded=0;fontColor=#1A1A1A;" vertex="1" parent="1">
          <mxGeometry x="190" y="500" width="60" height="30" as="geometry" />
        </mxCell>
        <mxCell id="UUonnZXE-ESuKKjVo0UI-64" value="1" style="text;html=1;align=center;verticalAlign=middle;whiteSpace=wrap;rounded=0;fontColor=#1A1A1A;" vertex="1" parent="1">
          <mxGeometry x="150" y="500" width="60" height="30" as="geometry" />
        </mxCell>
        <mxCell id="UUonnZXE-ESuKKjVo0UI-65" style="edgeStyle=orthogonalEdgeStyle;rounded=0;orthogonalLoop=1;jettySize=auto;html=1;exitX=0.5;exitY=0;exitDx=0;exitDy=0;entryX=0.686;entryY=1.009;entryDx=0;entryDy=0;entryPerimeter=0;strokeColor=#736CA8;fontColor=#1A1A1A;" edge="1" parent="1" source="UUonnZXE-ESuKKjVo0UI-19" target="UUonnZXE-ESuKKjVo0UI-1">
          <mxGeometry relative="1" as="geometry" />
        </mxCell>
        <mxCell id="UUonnZXE-ESuKKjVo0UI-67" style="edgeStyle=orthogonalEdgeStyle;rounded=0;orthogonalLoop=1;jettySize=auto;html=1;exitX=0.25;exitY=1;exitDx=0;exitDy=0;entryX=1.006;entryY=0.426;entryDx=0;entryDy=0;entryPerimeter=0;strokeColor=#736CA8;fontColor=#1A1A1A;" edge="1" parent="1" source="UUonnZXE-ESuKKjVo0UI-6" target="UUonnZXE-ESuKKjVo0UI-1">
          <mxGeometry relative="1" as="geometry" />
        </mxCell>
        <mxCell id="UUonnZXE-ESuKKjVo0UI-69" value="log Into" style="text;html=1;align=center;verticalAlign=middle;whiteSpace=wrap;rounded=0;fontColor=#1A1A1A;" vertex="1" parent="1">
          <mxGeometry x="370" y="495" width="60" height="30" as="geometry" />
        </mxCell>
        <mxCell id="UUonnZXE-ESuKKjVo0UI-71" value="results" style="text;html=1;align=center;verticalAlign=middle;whiteSpace=wrap;rounded=0;fontColor=#1A1A1A;" vertex="1" parent="1">
          <mxGeometry x="480" y="630" width="60" height="30" as="geometry" />
        </mxCell>
        <mxCell id="UUonnZXE-ESuKKjVo0UI-72" style="edgeStyle=orthogonalEdgeStyle;rounded=0;orthogonalLoop=1;jettySize=auto;html=1;exitX=0.5;exitY=1;exitDx=0;exitDy=0;entryX=0.36;entryY=-0.03;entryDx=0;entryDy=0;entryPerimeter=0;strokeColor=#736CA8;fontColor=#1A1A1A;" edge="1" parent="1" source="UUonnZXE-ESuKKjVo0UI-7" target="UUonnZXE-ESuKKjVo0UI-35">
          <mxGeometry relative="1" as="geometry" />
        </mxCell>
        <mxCell id="UUonnZXE-ESuKKjVo0UI-73" value="&amp;nbsp;gets the results" style="text;html=1;align=center;verticalAlign=middle;whiteSpace=wrap;rounded=0;fontColor=#1A1A1A;" vertex="1" parent="1">
          <mxGeometry x="690" y="420" width="60" height="30" as="geometry" />
        </mxCell>
      </root>
    </mxGraphModel>
  </diagram>
</mxfile>
